#!OML:ASF E:/inclinewalkrobotboard/Project1/Captureday1/Session1/subject1.ASF
:FULLY-SPECIFIED
:DEGREES
38
root 0 0 0 1.9199099283645378 -10.64744015995985 0.4113985330684463
lowerback 0.5300107267773164 -1.849119557104967 -2.2413170611216575
upperback 0.2587316797446515 -2.396697384330183 1.545689657137487
thorax 0.17868600073847873 -1.2340619742690593 2.782496155775336
lowerneck -21.40451410964749 -0.8403894716433953 -7.6896703600315846
upperneck 34.73887774807906 1.332444622095778 0.5134395826006606
head 15.381730333350436 -0.37356991871551126 1.9453668329231553
rclavicle -2.013785301027878E-15 1.143006308439523E-15
rhumerus -32.54184133981161 -4.694540518084827 -80.41907776556043
rradius 30.207683321363113
rwrist 19.00948672146264
rhand -17.609834095736957 9.439736259383455
rfingers 7.125019999999959
rthumb 8.64439916250359 -20.36868575502966
lclavicle -3.845647187446352E-15 2.5896841514775076E-15
lhumerus -35.304756028022396 -15.725149768732177 98.64461125829557
lradius 60.69269297789537
lwrist 7.425136390296814
lhand -26.03113062150822 24.707375720166574
lfingers 7.125019999999969
lthumb 0.5496552581285092 54.8928714510025
rfemur -27.767370211380083 -0.7004120908789631 18.064967246109752
rtibia 67.35759926270877
rfoot -2.134525181213464 -6.370057786937723
rtoes 4.792965068997981
lfemur -0.04617293167964531 -2.569918519045394 -29.277020126922956
ltibia 22.433269948028304
lfoot -17.90702388721094 0.438637778076588
ltoes 5.62744111363657
39
root 0 0 0 1.9376181473254177 -10.666829476408497 0.42920524713894925
lowerback 0.4978460660084827 -1.8573169710595359 -2.2596606694286328
upperback 0.2553806130524482 -2.4092787147919967 1.551304978186834
thorax 0.19438650995818874 -1.2393276485799447 2.79901322051629
lowerneck -21.493249124741276 -0.842329847152834 -7.70878831061752
upperneck 34.60112139065646 1.3358624537883546 0.5464366693401099
head 15.346379703862059 -0.3656678599211942 1.9584743794460673
rclavicle -1.3113583475336486E-15 8.159279736012318E-16
rhumerus -32.63623746367442 -4.865403125796567 -80.34089572725722
rradius 30.138263629150494
rwrist 19.099466184505058
rhand -17.55999500601497 9.409748780492896
rfingers 7.125019999999959
rthumb 8.691585248972494 -20.405035608416934
lclavicle -3.65230989347923E-15 2.714331959332053E-15
lhumerus -35.01039864274568 -16.190974866419864 98.29524801111307
lradius 61.114341162212476
lwrist 7.531829138063557
lhand -26.03131658146671 24.940499233773366
lfingers 7.125019999999966
lthumb 0.5432845253952996 55.12915129918468
rfemur -29.750687126827238 -0.1908694261927124 17.840975490930006
rtibia 60.896332562190835
rfoot -3.3399371907161477 -7.5264089779432375
rtoes 2.5243031543822783
lfemur 2.167421680024464 -2.2528794821775437 -29.988219423383857
ltibia 22.95425159713784
lfoot -19.030697583683132 0.0019510074616908568
ltoes 4.315262119327926
40
root 0 0 0 1.9448569963199898 -10.672296302096036 0.44043987059652157
lowerback 0.493213694847876 -1.8619373824730214 -2.2659973971067733
upperback 0.2569659962047559 -2.415885232784672 1.5568119673782732
thorax 0.199623184125455 -1.2423853208982962 2.8085433904072
lowerneck -21.581929532025924 -0.8482140622829349 -7.708179690398587
upperneck 34.4506886548474 1.3309030171066385 0.5660642952377124
head 15.304892412636324 -0.3609471675310908 1.9623455628239452
rclavicle -5.187808575850697E-16 3.0038195463581635E-16
rhumerus -32.67615627575252 -4.9646443339394715 -80.27391641554739
rradius 30.079147137579305
rwrist 19.092968182132896
rhand -17.540869868305354 9.442996220508581
rfingers 7.125019999999958
rthumb 8.709242458107221 -20.378736818779295
lclavicle -3.1638311085733425E-15 2.720559456230256E-15
lhumerus -34.77753262063712 -16.526165858390765 97.99793837780624
lradius 61.41462834971667
lwrist 7.628166224214434
lhand -26.01374384105499 25.137110478462116
lfingers 7.125019999999965
lthumb 0.5550974754238185 55.32861226407542
rfemur -31.885772173538776 0.8585391909737927 17.856549313274225
rtibia 50.86288940984421
rfoot -4.529281484459387 -9.23331016735371
rtoes 0.12307890938926835
lfemur 3.6996001231656144 -2.1243737143608614 -30.236137370840556
ltibia 23.197231234750095
lfoot -19.255489795855798 -0.4812862938413045
ltoes 3.067522259124127
41
root 0 0 0 1.7419367762890514 -9.563307865941177 0.8967244355051166
lowerback 0.9607669892482449 -1.5508441859702804 -2.8177203235979147
upperback -0.5377856572687245 -1.981428431612176 2.051812376826592
thorax -0.8537493664844119 -0.9830172947156374 3.667875202754955
lowerneck -25.603467508231525 -1.513970048500175 -7.459736135880023
upperneck 18.850441781794025 0.07303369139126445 3.3397535474184754
head 10.324374580478361 -0.1697316924743124 2.462811213819769
rclavicle 1.3763846975972766E-15 -2.107930660316847E-15
rhumerus -32.31974593241746 -3.9051048945084266 -80.20208916447322
rradius 30.10568133666842
rwrist 18.524097336278373
rhand -17.83514611923599 9.8240318386705
rfingers 7.125019999999951
rthumb 8.42433969223378 -20.019988924338563
lclavicle 7.69389315393201E-16 -8.204577700034901E-16
lhumerus -26.085925400771984 -14.172975321229455 94.06839793018871
lradius 66.16009055264284
lwrist 4.941303999372038
lhand -28.187585729156073 24.53743270659044
lfingers 7.125019999999984
lthumb -1.5525240645182459 54.61435729898841
rfemur -33.69581713509296 3.703071927728227 17.93992347582868
rtibia 28.810169134560365
rfoot -6.563139595601787 -12.542978699897116
rtoes -5.828410886667781
lfemur 9.996501358474918 -3.2495774395587844 -29.679610989061167
ltibia 19.02344243859496
lfoot -18.133913628661368 -2.1582708846308445
ltoes -4.099525351087241
